<svg width="185" height="108" viewBox="0 0 185 108" fill="none" xmlns="http://www.w3.org/2000/svg">
<path d="M50 64.648L15.7213 84V45.624L50 64.648ZM50 64.648L9 41.688V2L50 25.288" stroke="black"/>
<path d="M22 85.524L59.623 107V64.412L22 85.524ZM22 85.524L67 60.044V16L22 41.844" stroke="black"/>
<rect x="50.5" y="32.5" width="10" height="10" stroke="black"/>
<rect x="76.5" y="16.5" width="10" height="10" stroke="black"/>
<rect x="92.5" y="0.5" width="19" height="19" stroke="black"/>
<rect x="76.5" y="32.5" width="25" height="23" stroke="black"/>
<path d="M67.5469 72.4258L67.5469 96.6758L46.5459 84.5508L67.5469 72.4258Z" stroke="black"/>
<path d="M8 77.125L8 52.875L29.001 65L8 77.125Z" stroke="black"/>
<path d="M85.3395 76.4531C85.2732 75.8329 84.9938 75.3499 84.5014 75.0043C84.0137 74.6586 83.3793 74.4858 82.598 74.4858C82.0488 74.4858 81.5777 74.5687 81.1847 74.7344C80.7917 74.9001 80.491 75.125 80.2827 75.4091C80.0743 75.6932 79.9678 76.0175 79.9631 76.3821C79.9631 76.6851 80.0317 76.9479 80.169 77.1705C80.3111 77.393 80.5028 77.5824 80.7443 77.7386C80.9858 77.8902 81.2533 78.018 81.5469 78.1222C81.8404 78.2263 82.1364 78.3139 82.4347 78.3849L83.7983 78.7259C84.3475 78.8537 84.8755 79.0265 85.3821 79.2443C85.8935 79.4621 86.3504 79.7367 86.7528 80.0682C87.16 80.3996 87.482 80.7997 87.7188 81.2685C87.9555 81.7372 88.0739 82.2865 88.0739 82.9162C88.0739 83.7685 87.8561 84.5189 87.4205 85.1676C86.9848 85.8116 86.3551 86.3158 85.5312 86.6804C84.7121 87.0402 83.7202 87.2202 82.5554 87.2202C81.4238 87.2202 80.4413 87.045 79.608 86.6946C78.7794 86.3442 78.1307 85.8329 77.6619 85.1605C77.1979 84.4882 76.947 83.669 76.9091 82.7031H79.5014C79.5393 83.2098 79.6955 83.6312 79.9702 83.9673C80.2448 84.3035 80.6023 84.5545 81.0426 84.7202C81.4877 84.8859 81.9848 84.9688 82.5341 84.9688C83.107 84.9688 83.6089 84.8835 84.0398 84.7131C84.4754 84.5379 84.8163 84.2964 85.0625 83.9886C85.3087 83.6761 85.4342 83.3116 85.4389 82.8949C85.4342 82.5161 85.3229 82.2036 85.1051 81.9574C84.8873 81.7064 84.5819 81.4981 84.1889 81.3324C83.8007 81.1619 83.3461 81.0104 82.8253 80.8778L81.1705 80.4517C79.9725 80.1439 79.0256 79.6776 78.3295 79.0526C77.6383 78.4228 77.2926 77.5871 77.2926 76.5455C77.2926 75.6884 77.5246 74.938 77.9886 74.294C78.4574 73.6501 79.0942 73.1506 79.8991 72.7955C80.7041 72.4356 81.6155 72.2557 82.6335 72.2557C83.6657 72.2557 84.5701 72.4356 85.3466 72.7955C86.1278 73.1506 86.741 73.6454 87.1861 74.2798C87.6312 74.9096 87.8608 75.634 87.875 76.4531H85.3395ZM90.4229 87V72.4545H93.0579V79.1378H93.2354L98.9102 72.4545H102.127L96.5025 78.9815L102.177 87H99.0096L94.6701 80.7642L93.0579 82.6676V87H90.4229ZM106.593 72.4545V87H103.958V72.4545H106.593ZM109.446 87V72.4545H112.081V84.7912H118.488V87H109.446ZM120.775 87V72.4545H123.409V84.7912H129.816V87H120.775ZM132.103 87V72.4545H141.563V74.6634H134.738V78.6122H141.073V80.821H134.738V84.7912H141.62V87H132.103ZM149.18 87H144.251V72.4545H149.279C150.724 72.4545 151.964 72.7457 153.001 73.3281C154.043 73.9058 154.843 74.7367 155.402 75.821C155.96 76.9053 156.24 78.2027 156.24 79.7131C156.24 81.2282 155.958 82.5303 155.395 83.6193C154.836 84.7083 154.029 85.544 152.973 86.1264C151.922 86.7088 150.657 87 149.18 87ZM146.886 84.7202H149.052C150.065 84.7202 150.911 84.5355 151.588 84.1662C152.265 83.7921 152.774 83.2358 153.115 82.4972C153.456 81.7538 153.626 80.8258 153.626 79.7131C153.626 78.6004 153.456 77.6771 153.115 76.9432C152.774 76.2045 152.27 75.6529 151.602 75.2884C150.939 74.919 150.115 74.7344 149.13 74.7344H146.886V84.7202ZM168.488 77.0994C168.369 76.7159 168.206 76.3726 167.998 76.0696C167.794 75.7618 167.548 75.4991 167.259 75.2812C166.975 75.0634 166.648 74.9001 166.279 74.7912C165.909 74.6776 165.507 74.6207 165.071 74.6207C164.29 74.6207 163.594 74.8172 162.983 75.2102C162.373 75.6032 161.892 76.1809 161.542 76.9432C161.196 77.7008 161.023 78.6241 161.023 79.7131C161.023 80.8116 161.196 81.742 161.542 82.5043C161.887 83.2666 162.368 83.8466 162.983 84.2443C163.599 84.6373 164.314 84.8338 165.128 84.8338C165.867 84.8338 166.506 84.6918 167.046 84.4077C167.59 84.1236 168.009 83.7211 168.303 83.2003C168.596 82.6747 168.743 82.0592 168.743 81.3537L169.34 81.446H165.391V79.3864H171.293V81.1335C171.293 82.3788 171.028 83.456 170.498 84.3651C169.967 85.2741 169.238 85.9749 168.31 86.4673C167.382 86.955 166.317 87.1989 165.114 87.1989C163.774 87.1989 162.597 86.8982 161.584 86.2969C160.576 85.6908 159.787 84.8314 159.219 83.7188C158.656 82.6013 158.374 81.2756 158.374 79.7415C158.374 78.5672 158.54 77.5185 158.871 76.5952C159.207 75.6719 159.676 74.8883 160.277 74.2443C160.879 73.5956 161.584 73.1032 162.394 72.767C163.203 72.4261 164.084 72.2557 165.036 72.2557C165.841 72.2557 166.591 72.3741 167.287 72.6108C167.983 72.8428 168.601 73.1742 169.141 73.6051C169.685 74.036 170.133 74.5473 170.483 75.1392C170.834 75.7311 171.063 76.3845 171.172 77.0994H168.488ZM173.841 87V72.4545H183.301V74.6634H176.476V78.6122H182.811V80.821H176.476V84.7912H183.358V87H173.841Z" fill="black"/>
<path d="M77.0387 104V94.5455H78.4652V102.772H82.7493V104H77.0387ZM89.6619 104.143C88.9633 104.143 88.3616 103.994 87.8569 103.695C87.3552 103.394 86.9674 102.971 86.6935 102.426C86.4227 101.878 86.2873 101.236 86.2873 100.501C86.2873 99.7744 86.4227 99.1342 86.6935 98.5803C86.9674 98.0263 87.3491 97.5939 87.8384 97.283C88.3308 96.9722 88.9063 96.8168 89.565 96.8168C89.9651 96.8168 90.3528 96.8829 90.7283 97.0153C91.1038 97.1476 91.4408 97.3554 91.7393 97.6385C92.0379 97.9216 92.2733 98.2894 92.4456 98.7418C92.618 99.1912 92.7042 99.7375 92.7042 100.381V100.87H87.0675V99.8359H91.3515C91.3515 99.4728 91.2777 99.1512 91.13 98.8711C90.9822 98.5879 90.7745 98.3648 90.5067 98.2017C90.242 98.0386 89.9312 97.957 89.5742 97.957C89.1864 97.957 88.8479 98.0524 88.5586 98.2433C88.2724 98.431 88.0508 98.6772 87.8938 98.9819C87.7399 99.2835 87.663 99.6113 87.663 99.9652V100.773C87.663 101.247 87.7461 101.65 87.9123 101.983C88.0815 102.315 88.317 102.569 88.6186 102.744C88.9202 102.917 89.2726 103.003 89.6758 103.003C89.9374 103.003 90.1759 102.966 90.3913 102.892C90.6067 102.815 90.7929 102.701 90.9499 102.55C91.1069 102.4 91.2269 102.213 91.31 101.992L92.6165 102.227C92.5118 102.612 92.3241 102.949 92.0532 103.238C91.7855 103.525 91.4485 103.748 91.0422 103.908C90.6391 104.065 90.179 104.143 89.6619 104.143ZM98.6393 104.157C98.1899 104.157 97.7837 104.074 97.4205 103.908C97.0573 103.738 96.7696 103.494 96.5572 103.174C96.3479 102.854 96.2433 102.461 96.2433 101.996C96.2433 101.596 96.3202 101.267 96.4741 101.009C96.628 100.75 96.8357 100.545 97.0973 100.395C97.3589 100.244 97.6513 100.13 97.9745 100.053C98.2976 99.976 98.6269 99.9175 98.9624 99.8775C99.3871 99.8282 99.7318 99.7882 99.9965 99.7575C100.261 99.7236 100.454 99.6697 100.574 99.5959C100.694 99.522 100.754 99.402 100.754 99.2358V99.2035C100.754 98.8003 100.64 98.4879 100.412 98.2663C100.187 98.0447 99.8518 97.9339 99.4056 97.9339C98.9409 97.9339 98.5746 98.037 98.3069 98.2433C98.0422 98.4464 97.8591 98.6726 97.7575 98.9219L96.4603 98.6264C96.6142 98.1955 96.8388 97.8478 97.1343 97.5831C97.4328 97.3153 97.776 97.1214 98.1638 97.0014C98.5515 96.8783 98.9593 96.8168 99.3871 96.8168C99.6703 96.8168 99.9703 96.8506 100.287 96.9183C100.607 96.983 100.906 97.103 101.183 97.2784C101.463 97.4538 101.692 97.7047 101.871 98.0309C102.049 98.354 102.139 98.7741 102.139 99.2912V104H100.791V103.031H100.735C100.646 103.209 100.512 103.384 100.333 103.557C100.155 103.729 99.9257 103.872 99.6456 103.986C99.3656 104.1 99.0301 104.157 98.6393 104.157ZM98.9393 103.049C99.321 103.049 99.6472 102.974 99.918 102.823C100.192 102.672 100.4 102.475 100.541 102.232C100.686 101.986 100.758 101.723 100.758 101.442V100.528C100.709 100.578 100.614 100.624 100.472 100.667C100.333 100.707 100.175 100.742 99.9965 100.773C99.818 100.801 99.6441 100.827 99.4748 100.852C99.3056 100.873 99.164 100.892 99.0501 100.907C98.7824 100.941 98.5377 100.998 98.3161 101.078C98.0976 101.158 97.9222 101.273 97.7898 101.424C97.6606 101.572 97.5959 101.769 97.5959 102.015C97.5959 102.357 97.7221 102.615 97.9745 102.79C98.2268 102.963 98.5485 103.049 98.9393 103.049ZM106.317 104V96.9091H107.651V98.0355H107.725C107.854 97.6539 108.082 97.3538 108.408 97.1353C108.738 96.9137 109.11 96.8029 109.526 96.8029C109.612 96.8029 109.713 96.806 109.83 96.8121C109.95 96.8183 110.044 96.826 110.112 96.8352V98.1555C110.056 98.1402 109.958 98.1232 109.816 98.1048C109.675 98.0832 109.533 98.0724 109.392 98.0724C109.065 98.0724 108.775 98.1417 108.519 98.2802C108.267 98.4156 108.067 98.6049 107.919 98.848C107.771 99.0881 107.697 99.362 107.697 99.6697V104H106.317ZM115.027 99.7898V104H113.646V96.9091H114.971V98.0632H115.059C115.222 97.6877 115.478 97.3861 115.825 97.1584C116.176 96.9306 116.618 96.8168 117.15 96.8168C117.633 96.8168 118.057 96.9183 118.42 97.1214C118.783 97.3215 119.065 97.62 119.265 98.017C119.465 98.4141 119.565 98.9049 119.565 99.4897V104H118.184V99.6559C118.184 99.1419 118.05 98.7403 117.783 98.451C117.515 98.1586 117.147 98.0124 116.679 98.0124C116.359 98.0124 116.075 98.0817 115.825 98.2202C115.579 98.3587 115.384 98.5618 115.239 98.8295C115.097 99.0942 115.027 99.4143 115.027 99.7898ZM123.756 104V96.9091H125.136V104H123.756ZM124.453 95.815C124.213 95.815 124.007 95.735 123.834 95.5749C123.665 95.4118 123.58 95.2179 123.58 94.9933C123.58 94.7655 123.665 94.5716 123.834 94.4116C124.007 94.2485 124.213 94.1669 124.453 94.1669C124.693 94.1669 124.898 94.2485 125.067 94.4116C125.239 94.5716 125.325 94.7655 125.325 94.9933C125.325 95.2179 125.239 95.4118 125.067 95.5749C124.898 95.735 124.693 95.815 124.453 95.815ZM130.713 99.7898V104H129.333V96.9091H130.658V98.0632H130.746C130.909 97.6877 131.164 97.3861 131.512 97.1584C131.863 96.9306 132.305 96.8168 132.837 96.8168C133.32 96.8168 133.743 96.9183 134.107 97.1214C134.47 97.3215 134.751 97.62 134.951 98.017C135.151 98.4141 135.251 98.9049 135.251 99.4897V104H133.871V99.6559C133.871 99.1419 133.737 98.7403 133.47 98.451C133.202 98.1586 132.834 98.0124 132.366 98.0124C132.046 98.0124 131.761 98.0817 131.512 98.2202C131.266 98.3587 131.07 98.5618 130.926 98.8295C130.784 99.0942 130.713 99.4143 130.713 99.7898ZM142.416 106.807C141.852 106.807 141.368 106.733 140.961 106.585C140.558 106.438 140.229 106.242 139.974 105.999C139.718 105.756 139.527 105.49 139.401 105.2L140.588 104.711C140.671 104.846 140.781 104.989 140.92 105.14C141.062 105.294 141.252 105.425 141.492 105.533C141.736 105.64 142.048 105.694 142.43 105.694C142.953 105.694 143.385 105.567 143.727 105.311C144.068 105.059 144.239 104.656 144.239 104.102V102.707H144.151C144.068 102.858 143.948 103.026 143.791 103.211C143.638 103.395 143.425 103.555 143.154 103.691C142.883 103.826 142.531 103.894 142.097 103.894C141.537 103.894 141.032 103.763 140.583 103.501C140.137 103.237 139.783 102.847 139.521 102.333C139.263 101.816 139.133 101.181 139.133 100.427C139.133 99.6728 139.261 99.0265 139.517 98.4879C139.775 97.9493 140.129 97.5369 140.578 97.2507C141.028 96.9614 141.537 96.8168 142.106 96.8168C142.546 96.8168 142.902 96.8906 143.173 97.0384C143.444 97.183 143.654 97.3523 143.805 97.5462C143.959 97.7401 144.078 97.9109 144.161 98.0586H144.262V96.9091H145.615V104.157C145.615 104.766 145.473 105.266 145.19 105.657C144.907 106.048 144.524 106.337 144.041 106.525C143.561 106.713 143.019 106.807 142.416 106.807ZM142.402 102.749C142.799 102.749 143.134 102.657 143.408 102.472C143.685 102.284 143.895 102.016 144.036 101.669C144.181 101.318 144.253 100.898 144.253 100.408C144.253 99.9313 144.182 99.5112 144.041 99.1481C143.899 98.7849 143.691 98.5018 143.417 98.2987C143.144 98.0924 142.805 97.9893 142.402 97.9893C141.986 97.9893 141.64 98.0971 141.363 98.3125C141.086 98.5249 140.877 98.8142 140.735 99.1804C140.597 99.5466 140.528 99.956 140.528 100.408C140.528 100.873 140.598 101.281 140.74 101.632C140.881 101.983 141.091 102.257 141.368 102.453C141.648 102.65 141.993 102.749 142.402 102.749Z" fill="black"/>
</svg>
