<svg width="154" height="58" viewBox="0 0 154 58" fill="none" xmlns="http://www.w3.org/2000/svg">
<g clip-path="url(#clip0_543_18028)">
<path d="M72.75 8.75H62.75V18.75H72.75V8.75Z" stroke="black" stroke-width="1.5"/>
<path d="M42.75 43.75H35.75V50.75H42.75V43.75Z" stroke="black" stroke-width="1.5"/>
<path d="M57.75 42.75H46.75V53.75H57.75V42.75Z" stroke="black" stroke-width="1.5"/>
<path d="M44.75 8.75H36.75V16.75H44.75V8.75Z" stroke="black" stroke-width="1.5"/>
<path d="M59.75 0.75H47.75V12.75H59.75V0.75Z" stroke="black" stroke-width="1.5"/>
<path d="M21.75 33.838L4.19262 43.75V24.094L21.75 33.838ZM21.75 33.838L0.75 22.078V1.75L21.75 13.678" stroke="black" stroke-width="1.5"/>
<path d="M7.75 44.658L26.9795 55.75V33.754L7.75 44.658ZM7.75 44.658L30.75 31.498V8.75L7.75 22.098" stroke="black" stroke-width="1.5"/>
<path d="M31.75 36.75V53.75L17.75 45.25L31.75 36.75Z" stroke="black" stroke-width="1.5"/>
<path d="M0.75 39.75V28.75L9.75 34.25L0.75 39.75Z" stroke="black" stroke-width="1.5"/>
<path d="M46.2387 27.2379C46.1658 26.5747 45.8587 26.0583 45.3175 25.6888C44.7815 25.3192 44.0842 25.1344 43.2254 25.1344C42.6218 25.1344 42.104 25.2231 41.672 25.4002C41.2401 25.5774 40.9096 25.8179 40.6806 26.1216C40.4516 26.4254 40.3345 26.7721 40.3294 27.1619C40.3294 27.4859 40.4048 27.7669 40.5557 28.0049C40.7119 28.2428 40.9226 28.4453 41.188 28.6123C41.4534 28.7744 41.7474 28.911 42.0701 29.0224C42.3927 29.1337 42.7181 29.2274 43.0459 29.3033L44.5447 29.6679C45.1483 29.8046 45.7287 29.9893 46.2855 30.2222C46.8476 30.4551 47.3498 30.7487 47.792 31.1031C48.2396 31.4574 48.5935 31.8852 48.8538 32.3865C49.114 32.8876 49.2441 33.4749 49.2441 34.1482C49.2441 35.0595 49.0047 35.8618 48.5259 36.5554C48.047 37.2439 47.3549 37.783 46.4494 38.1728C45.5491 38.5575 44.4589 38.75 43.1786 38.75C41.9348 38.75 40.855 38.5627 39.9391 38.188C39.0283 37.8134 38.3153 37.2667 37.8001 36.5478C37.2901 35.829 37.0143 34.9531 36.9727 33.9203H39.8219C39.8636 34.4621 40.0352 34.9127 40.3372 35.272C40.639 35.6315 41.0319 35.8998 41.5159 36.077C42.0051 36.2542 42.5515 36.3428 43.1552 36.3428C43.7849 36.3428 44.3365 36.2516 44.8101 36.0694C45.2889 35.8821 45.6636 35.6239 45.9342 35.2948C46.2048 34.9607 46.3428 34.5709 46.3479 34.1254C46.3428 33.7204 46.2204 33.3863 45.981 33.123C45.7416 32.8547 45.406 32.6319 44.974 32.4548C44.5473 32.2725 44.0477 32.1105 43.4753 31.9687L41.6564 31.5131C40.3397 31.184 39.2989 30.6855 38.5338 30.0172C37.7741 29.3438 37.3942 28.4503 37.3942 27.3366C37.3942 26.4202 37.6492 25.6179 38.1592 24.9293C38.6744 24.2409 39.3743 23.7068 40.259 23.3272C41.1438 22.9424 42.1455 22.75 43.2644 22.75C44.399 22.75 45.393 22.9424 46.2465 23.3272C47.1051 23.7068 47.7791 24.2359 48.2683 24.9142C48.7575 25.5875 49.0099 26.3621 49.0255 27.2379H46.2387ZM51.8259 38.5146V22.9626H54.7221V30.1083H54.9172L61.1545 22.9626H64.6901L58.5081 29.9412L64.7451 38.5146H61.2637L56.4941 31.8473L54.7221 33.8824V38.5146H51.8259ZM69.5988 22.9626V38.5146H66.7026V22.9626H69.5988ZM72.7346 38.5146V22.9626H75.6308V36.1529H82.6728V38.5146H72.7346ZM85.1865 38.5146V22.9626H88.0816V36.1529H95.1236V38.5146H85.1865ZM97.6373 38.5146V22.9626H108.035V25.3243H100.533V29.5463H107.496V31.908H100.533V36.1529H108.098V38.5146H97.6373ZM116.407 38.5146H110.989V22.9626H116.516C118.104 22.9626 119.467 23.2739 120.607 23.8966C121.752 24.5143 122.631 25.4027 123.246 26.562C123.859 27.7213 124.167 29.1085 124.167 30.7234C124.167 32.3434 123.857 33.7356 123.238 34.8999C122.624 36.0643 121.737 36.9578 120.576 37.5805C119.421 38.2032 118.03 38.5146 116.407 38.5146ZM113.886 36.077H116.266C117.38 36.077 118.31 35.8795 119.054 35.4847C119.798 35.0847 120.357 34.4899 120.732 33.7002C121.107 32.9053 121.294 31.9131 121.294 30.7234C121.294 29.5337 121.107 28.5465 120.732 27.7619C120.357 26.972 119.803 26.3823 119.069 25.9926C118.34 25.5976 117.435 25.4002 116.352 25.4002H113.886V36.077ZM137.629 27.9289C137.498 27.5188 137.319 27.1518 137.09 26.8278C136.866 26.4987 136.596 26.2178 136.278 25.9849C135.966 25.752 135.606 25.5774 135.201 25.4609C134.794 25.3395 134.352 25.2786 133.873 25.2786C133.015 25.2786 132.25 25.4887 131.578 25.9089C130.908 26.3291 130.379 26.9468 129.994 27.7619C129.614 28.5719 129.424 29.5591 129.424 30.7234C129.424 31.8979 129.614 32.8927 129.994 33.7078C130.373 34.5228 130.902 35.143 131.578 35.5682C132.255 35.9884 133.041 36.1985 133.936 36.1985C134.748 36.1985 135.45 36.0466 136.044 35.7429C136.642 35.4391 137.102 35.0088 137.425 34.4519C137.747 33.89 137.909 33.2319 137.909 32.4776L138.565 32.5762H134.225V30.3741H140.712V32.2421C140.712 33.5736 140.421 34.7253 139.838 35.6973C139.254 36.6692 138.453 37.4185 137.433 37.945C136.413 38.4664 135.243 38.7272 133.92 38.7272C132.447 38.7272 131.154 38.4057 130.04 37.7628C128.933 37.1148 128.065 36.1959 127.441 35.0063C126.822 33.8115 126.512 32.3941 126.512 30.7538C126.512 29.4982 126.695 28.377 127.059 27.3898C127.428 26.4026 127.943 25.5648 128.604 24.8762C129.266 24.1826 130.04 23.6561 130.931 23.2967C131.82 22.9322 132.788 22.75 133.835 22.75C134.719 22.75 135.544 22.8766 136.309 23.1297C137.074 23.3777 137.753 23.7321 138.346 24.1928C138.944 24.6535 139.437 25.2002 139.821 25.833C140.207 26.4659 140.459 27.1645 140.579 27.9289H137.629ZM143.512 38.5146V22.9626H153.91V25.3243H146.409V29.5463H153.371V31.908H146.409V36.1529H153.973V38.5146H143.512Z" fill="black"/>
<path d="M84.75 52.5831V43.1286H86.1765V51.3551H90.4606V52.5831H84.75ZM97.3732 52.7261C96.6746 52.7261 96.0729 52.5771 95.5682 52.2781C95.0665 51.9771 94.6787 51.5541 94.4048 51.0091C94.134 50.4611 93.9986 49.8191 93.9986 49.0841C93.9986 48.3575 94.134 47.7173 94.4048 47.1634C94.6787 46.6094 95.0604 46.177 95.5497 45.8661C96.0421 45.5553 96.6176 45.3999 97.2763 45.3999C97.6764 45.3999 98.0641 45.466 98.4396 45.5984C98.8151 45.7307 99.1521 45.9385 99.4506 46.2216C99.7492 46.5047 99.9846 46.8725 100.157 47.3249C100.329 47.7743 100.416 48.3206 100.416 48.9641V49.4531H94.7788V48.419H99.0628C99.0628 48.0559 98.989 47.7343 98.8413 47.4542C98.6935 47.171 98.4858 46.9479 98.218 46.7848C97.9533 46.6217 97.6425 46.5401 97.2855 46.5401C96.8977 46.5401 96.5592 46.6355 96.2699 46.8264C95.9837 47.0141 95.7621 47.2603 95.6051 47.565C95.4512 47.8666 95.3743 48.1944 95.3743 48.5483V49.3561C95.3743 49.8301 95.4574 50.2331 95.6236 50.5661C95.7928 50.8981 96.0283 51.1521 96.3299 51.3271C96.6315 51.5001 96.9839 51.5861 97.3871 51.5861C97.6487 51.5861 97.8872 51.5491 98.1026 51.4751C98.318 51.3981 98.5042 51.2841 98.6612 51.1331C98.8182 50.9831 98.9382 50.7961 99.0213 50.5751L100.328 50.8101C100.223 51.1951 100.035 51.5321 99.7645 51.8211C99.4968 52.1081 99.1598 52.3311 98.7535 52.4911C98.3504 52.6481 97.8903 52.7261 97.3732 52.7261ZM106.351 52.7401C105.901 52.7401 105.495 52.6571 105.132 52.4911C104.769 52.3211 104.481 52.0771 104.269 51.7571C104.059 51.4371 103.955 51.0441 103.955 50.5791C103.955 50.1791 104.032 49.8501 104.185 49.5921C104.339 49.3331 104.547 49.1281 104.809 48.9781C105.07 48.8271 105.363 48.7131 105.686 48.6361C106.009 48.5591 106.338 48.5006 106.674 48.4606C107.098 48.4113 107.443 48.3713 107.708 48.3406C107.972 48.3067 108.165 48.2528 108.285 48.179C108.405 48.1051 108.465 47.9851 108.465 47.8189V47.7866C108.465 47.3834 108.351 47.071 108.123 46.8494C107.898 46.6278 107.563 46.517 107.117 46.517C106.652 46.517 106.286 46.6201 106.018 46.8264C105.754 47.0295 105.57 47.2557 105.469 47.505L104.172 47.2095C104.326 46.7786 104.55 46.4309 104.846 46.1662C105.144 45.8984 105.487 45.7045 105.875 45.5845C106.263 45.4614 106.671 45.3999 107.098 45.3999C107.382 45.3999 107.682 45.4337 107.998 45.5014C108.318 45.5661 108.617 45.6861 108.894 45.8615C109.174 46.0369 109.403 46.2878 109.582 46.614C109.76 46.9371 109.85 47.3572 109.85 47.8743V52.5831H108.502V51.6141H108.446C108.357 51.7921 108.223 51.9671 108.044 52.1401C107.866 52.3121 107.637 52.4551 107.357 52.5691C107.077 52.6831 106.741 52.7401 106.351 52.7401ZM106.651 51.6321C107.032 51.6321 107.359 51.5571 107.629 51.4061C107.903 51.2551 108.111 51.0581 108.252 50.8151C108.397 50.5691 108.469 50.3061 108.469 50.0251V49.1111C108.42 49.1611 108.325 49.2071 108.183 49.2501C108.044 49.2901 107.886 49.3251 107.708 49.3561C107.529 49.3841 107.355 49.4101 107.186 49.4351C107.017 49.4561 106.875 49.4751 106.761 49.4901C106.494 49.5241 106.249 49.5811 106.027 49.6611C105.809 49.7411 105.634 49.8561 105.501 50.0071C105.372 50.1551 105.307 50.3521 105.307 50.5981C105.307 50.9401 105.433 51.1981 105.686 51.3731C105.938 51.5461 106.26 51.6321 106.651 51.6321ZM114.028 52.5831V45.4922H115.362V46.6186H115.436C115.565 46.237 115.793 45.9369 116.119 45.7184C116.449 45.4968 116.821 45.386 117.237 45.386C117.323 45.386 117.424 45.3891 117.541 45.3952C117.661 45.4014 117.755 45.4091 117.823 45.4183V46.7386C117.767 46.7233 117.669 46.7063 117.527 46.6879C117.386 46.6663 117.244 46.6555 117.103 46.6555C116.776 46.6555 116.486 46.7248 116.23 46.8633C115.978 46.9987 115.778 47.188 115.63 47.4311C115.482 47.6712 115.408 47.9451 115.408 48.2528V52.5831H114.028ZM122.738 48.3729V52.5831H121.357V45.4922H122.682V46.6463H122.77C122.933 46.2708 123.189 45.9692 123.536 45.7415C123.887 45.5137 124.329 45.3999 124.861 45.3999C125.344 45.3999 125.768 45.5014 126.131 45.7045C126.494 45.9046 126.776 46.2031 126.976 46.6001C127.176 46.9972 127.276 47.488 127.276 48.0728V52.5831H125.895V48.239C125.895 47.725 125.761 47.3234 125.494 47.0341C125.226 46.7417 124.858 46.5955 124.39 46.5955C124.07 46.5955 123.786 46.6648 123.536 46.8033C123.29 46.9418 123.095 47.1449 122.95 47.4126C122.808 47.6773 122.738 47.9974 122.738 48.3729ZM131.467 52.5831V45.4922H132.847V52.5831H131.467ZM132.164 44.3981C131.924 44.3981 131.718 44.3181 131.545 44.158C131.376 43.9949 131.291 43.801 131.291 43.5764C131.291 43.3486 131.376 43.1547 131.545 42.9947C131.718 42.8316 131.924 42.75 132.164 42.75C132.404 42.75 132.609 42.8316 132.778 42.9947C132.95 43.1547 133.036 43.3486 133.036 43.5764C133.036 43.801 132.95 43.9949 132.778 44.158C132.609 44.3181 132.404 44.3981 132.164 44.3981ZM138.424 48.3729V52.5831H137.044V45.4922H138.369V46.6463H138.457C138.62 46.2708 138.875 45.9692 139.223 45.7415C139.574 45.5137 140.016 45.3999 140.548 45.3999C141.031 45.3999 141.454 45.5014 141.818 45.7045C142.181 45.9046 142.462 46.2031 142.662 46.6001C142.862 46.9972 142.962 47.488 142.962 48.0728V52.5831H141.582V48.239C141.582 47.725 141.448 47.3234 141.181 47.0341C140.913 46.7417 140.545 46.5955 140.077 46.5955C139.757 46.5955 139.472 46.6648 139.223 46.8033C138.977 46.9418 138.781 47.1449 138.637 47.4126C138.495 47.6773 138.424 47.9974 138.424 48.3729ZM150.127 55.3901C149.563 55.3901 149.079 55.3161 148.672 55.1681C148.269 55.0211 147.94 54.8251 147.685 54.5821C147.429 54.3391 147.238 54.0731 147.112 53.7831L148.299 53.2941C148.382 53.4291 148.492 53.5721 148.631 53.7231C148.773 53.8771 148.963 54.0081 149.203 54.1161C149.447 54.2231 149.759 54.2771 150.141 54.2771C150.664 54.2771 151.096 54.1501 151.438 53.8941C151.779 53.6421 151.95 53.2391 151.95 52.6851V51.2901H151.862C151.779 51.4411 151.659 51.6091 151.502 51.7941C151.349 51.9781 151.136 52.1381 150.865 52.2741C150.594 52.4091 150.242 52.4771 149.808 52.4771C149.248 52.4771 148.743 52.3461 148.294 52.0841C147.848 51.8201 147.494 51.4301 147.232 50.9161C146.974 50.3991 146.844 49.7641 146.844 49.0101C146.844 48.2559 146.972 47.6096 147.228 47.071C147.486 46.5324 147.84 46.12 148.289 45.8338C148.739 45.5445 149.248 45.3999 149.817 45.3999C150.257 45.3999 150.613 45.4737 150.884 45.6215C151.155 45.7661 151.365 45.9354 151.516 46.1293C151.67 46.3232 151.789 46.494 151.872 46.6417H151.973V45.4922H153.326V52.7401C153.326 53.3491 153.184 53.8491 152.901 54.2401C152.618 54.6311 152.235 54.9201 151.752 55.1081C151.272 55.2961 150.73 55.3901 150.127 55.3901ZM150.113 51.3321C150.51 51.3321 150.845 51.2401 151.119 51.0551C151.396 50.8671 151.606 50.5991 151.747 50.2521C151.892 49.9011 151.964 49.4811 151.964 48.9911C151.964 48.5144 151.893 48.0943 151.752 47.7312C151.61 47.368 151.402 47.0849 151.128 46.8818C150.855 46.6755 150.516 46.5724 150.113 46.5724C149.697 46.5724 149.351 46.6802 149.074 46.8956C148.797 47.108 148.588 47.3973 148.446 47.7635C148.308 48.1297 148.239 48.5391 148.239 48.9911C148.239 49.4561 148.309 49.8641 148.451 50.2151C148.592 50.5661 148.802 50.8401 149.079 51.0361C149.359 51.2331 149.704 51.3321 150.113 51.3321Z" fill="black"/>
</g>
<defs>
<clipPath id="clip0_543_18028">
<rect width="154" height="58" fill="white"/>
</clipPath>
</defs>
</svg>
